<svg width="20" height="18" viewBox="0 0 20 18" fill="none" xmlns="http://www.w3.org/2000/svg">
<path d="M7.00027 8.99979C9.20973 8.99979 11.0004 6.98538 11.0004 4.49989C11.0004 2.01441 9.20973 0 7.00027 0C4.79081 0 3.00012 2.01441 3.00012 4.49989C3.00012 6.98538 4.79081 8.99979 7.00027 8.99979ZM9.80038 10.1248H9.27849C8.58471 10.4833 7.81281 10.6872 7.00027 10.6872C6.18774 10.6872 5.41896 10.4833 4.72206 10.1248H4.20016C1.88132 10.1248 0 12.2411 0 14.8496V16.3121C0 17.2437 0.671901 17.9996 1.50006 17.9996H10.091C10.016 17.7605 9.98477 17.5074 10.0098 17.2508L10.2223 15.1098L10.2598 14.7196L10.5067 14.4418L12.9224 11.7243C12.1567 10.7505 11.0473 10.1248 9.80038 10.1248ZM11.2161 15.2328L11.0036 17.3773C10.9692 17.7359 11.2379 18.0382 11.5536 17.9961L13.4568 17.757L17.7663 12.9091L15.5256 10.3884L11.2161 15.2328ZM19.782 9.45329L18.5976 8.1209C18.307 7.79396 17.8319 7.79396 17.5413 8.1209L16.36 9.44978L16.2319 9.59391L18.4757 12.1146L19.782 10.6451C20.0727 10.3146 20.0727 9.78375 19.782 9.45329Z" fill="black"/>
</svg>
