<svg width="14" height="15" viewBox="0 0 14 15" fill="none" xmlns="http://www.w3.org/2000/svg">
<path d="M5.82812 8.51756C5.82812 9.11742 5.39062 9.30702 4.85313 9.30702H3.44375V7.66283H4.88125C5.4625 7.66594 5.82812 7.90526 5.82812 8.51756ZM5.5875 5.95958C5.5875 5.40945 5.15937 5.27891 4.68437 5.27891H3.44688V6.67134H4.78125C5.25313 6.67134 5.5875 6.46621 5.5875 5.95958ZM9.72188 6.68067C9.15 6.68067 8.76875 7.03499 8.73125 7.60377H10.675C10.6219 7.02877 10.3219 6.68067 9.72188 6.68067ZM14 1.89729V12.8378C14 13.6615 13.3281 14.3297 12.5 14.3297H1.5C0.671875 14.3297 0 13.6615 0 12.8378V1.89729C0 1.07364 0.671875 0.405396 1.5 0.405396H12.5C13.3281 0.405396 14 1.07364 14 1.89729ZM8.49063 5.1608H10.9219V4.57337H8.49063V5.1608ZM7.14687 8.58904C7.14687 7.83999 6.79063 7.1935 6.05312 6.98526C6.59062 6.7304 6.87187 6.43512 6.87187 5.83526C6.87187 4.64796 5.98125 4.35891 4.95312 4.35891H2.125V10.3265H5.03438C6.125 10.3203 7.14687 9.80121 7.14687 8.58904ZM11.875 8.12904C11.875 6.85161 11.1219 5.78553 9.7625 5.78553C8.4375 5.78553 7.54063 6.77391 7.54063 8.0731C7.54063 9.41891 8.39375 10.342 9.7625 10.342C10.8 10.342 11.4719 9.87891 11.7969 8.88742H10.7437C10.6281 9.25729 10.1625 9.44999 9.8 9.44999C9.1 9.44999 8.73438 9.04283 8.73438 8.35283H11.8656C11.8688 8.28134 11.875 8.20364 11.875 8.12904Z" fill="white"/>
</svg>
