<svg width="50" height="56" viewBox="0 0 50 56" fill="none" xmlns="http://www.w3.org/2000/svg">
<g clip-path="url(#clip0)">
<path d="M50 11.0053L45.4449 51.4958L24.9694 56L4.5503 51.5022L0 11.0053H50Z" fill="#264DE4"/>
<path d="M41.5452 48.9175L45.4378 14.3165H25V52.5572L41.5452 48.9175Z" fill="#2965F1"/>
<path d="M10.4315 29.3362L10.9925 34.303H25V29.3362H10.4315Z" fill="#EBEBEB"/>
<path d="M25 19.2834H24.9784H9.3042L9.87321 24.2502H25V19.2834Z" fill="#EBEBEB"/>
<path d="M25 47.403V42.2355L24.9726 42.2413L18.0013 40.7476L17.5557 36.7864H14.1682H11.2722L12.1491 44.585L24.9712 47.4093L25 47.403Z" fill="#EBEBEB"/>
<path d="M11.7672 0H19.3485V2.51562H14.9375V5.03125H19.3485V7.54688H11.7672V0Z" fill="white"/>
<path d="M20.8647 0H28.4461V2.1875H24.0351V2.625H28.4461V7.65625H20.8647V5.35938H25.2757V4.92188H20.8647V0Z" fill="white"/>
<path d="M29.9623 0H37.5436V2.1875H33.1327V2.625H37.5436V7.65625H29.9623V5.35938H34.3733V4.92188H29.9623V0Z" fill="white"/>
<path d="M32.6862 34.3029L31.9596 40.7445L24.9784 42.2396V47.4069L37.8106 44.585L37.9048 43.7458L39.3757 30.6699L39.5284 29.3362L40.6584 19.2834H24.9784V24.2502H33.7986L33.229 29.3362H24.9784V34.3029H32.6862Z" fill="white"/>
</g>
<defs>
<clipPath id="clip0">
<rect width="50" height="56" fill="white"/>
</clipPath>
</defs>
</svg>
