<svg width="20" height="20" viewBox="0 0 20 20" fill="none" xmlns="http://www.w3.org/2000/svg">
<path d="M1.4613 17.3571C1.4613 17.8307 1.68471 18.2849 2.08239 18.6198C2.48007 18.9547 3.01943 19.1428 3.58183 19.1428H16.305C16.8674 19.1428 17.4068 18.9547 17.8045 18.6198C18.2022 18.2849 18.4256 17.8307 18.4256 17.3571V4.85713H1.4613V17.3571ZM13.4777 7.83332C13.4777 7.67545 13.5521 7.52405 13.6847 7.41242C13.8173 7.30079 13.997 7.23808 14.1845 7.23808C14.372 7.23808 14.5518 7.30079 14.6843 7.41242C14.8169 7.52405 14.8914 7.67545 14.8914 7.83332V16.1667C14.8914 16.3245 14.8169 16.4759 14.6843 16.5875C14.5518 16.6992 14.372 16.7619 14.1845 16.7619C13.997 16.7619 13.8173 16.6992 13.6847 16.5875C13.5521 16.4759 13.4777 16.3245 13.4777 16.1667V7.83332ZM9.2366 7.83332C9.2366 7.67545 9.31107 7.52405 9.44363 7.41242C9.57618 7.30079 9.75597 7.23808 9.94344 7.23808C10.1309 7.23808 10.3107 7.30079 10.4433 7.41242C10.5758 7.52405 10.6503 7.67545 10.6503 7.83332V16.1667C10.6503 16.3245 10.5758 16.4759 10.4433 16.5875C10.3107 16.6992 10.1309 16.7619 9.94344 16.7619C9.75597 16.7619 9.57618 16.6992 9.44363 16.5875C9.31107 16.4759 9.2366 16.3245 9.2366 16.1667V7.83332ZM4.99552 7.83332C4.99552 7.67545 5.06999 7.52405 5.20255 7.41242C5.33511 7.30079 5.5149 7.23808 5.70237 7.23808C5.88984 7.23808 6.06962 7.30079 6.20218 7.41242C6.33474 7.52405 6.40921 7.67545 6.40921 7.83332V16.1667C6.40921 16.3245 6.33474 16.4759 6.20218 16.5875C6.06962 16.6992 5.88984 16.7619 5.70237 16.7619C5.5149 16.7619 5.33511 16.6992 5.20255 16.5875C5.06999 16.4759 4.99552 16.3245 4.99552 16.1667V7.83332ZM19.1324 1.2857H13.8311L13.4158 0.590013C13.3278 0.441283 13.1923 0.316175 13.0245 0.228762C12.8567 0.14135 12.6633 0.0951022 12.466 0.0952214H7.41647C7.2196 0.0945841 7.02651 0.14066 6.8593 0.228169C6.69209 0.315679 6.55754 0.441082 6.47106 0.590013L6.05579 1.2857H0.754453C0.566986 1.2857 0.387197 1.34841 0.254638 1.46004C0.122078 1.57167 0.0476074 1.72307 0.0476074 1.88094L0.0476074 3.07141C0.0476074 3.22928 0.122078 3.38068 0.254638 3.49231C0.387197 3.60394 0.566986 3.66665 0.754453 3.66665H19.1324C19.3199 3.66665 19.4997 3.60394 19.6322 3.49231C19.7648 3.38068 19.8393 3.22928 19.8393 3.07141V1.88094C19.8393 1.72307 19.7648 1.57167 19.6322 1.46004C19.4997 1.34841 19.3199 1.2857 19.1324 1.2857Z" fill="white"/>
</svg>
