<svg width="14" height="15" viewBox="0 0 14 15" fill="none" xmlns="http://www.w3.org/2000/svg">
<path d="M4.68266 11.6172C4.68266 11.6748 4.61774 11.7209 4.53589 11.7209C4.44274 11.7295 4.37782 11.6835 4.37782 11.6172C4.37782 11.5597 4.44274 11.5136 4.5246 11.5136C4.60927 11.5049 4.68266 11.551 4.68266 11.6172ZM3.80484 11.4877C3.78508 11.5453 3.84153 11.6115 3.92621 11.6288C3.9996 11.6575 4.08427 11.6288 4.10121 11.5712C4.11814 11.5136 4.06452 11.4474 3.97984 11.4215C3.90645 11.4013 3.8246 11.4301 3.80484 11.4877ZM5.05242 11.4387C4.97056 11.4589 4.91411 11.5136 4.92258 11.5798C4.93105 11.6374 5.00444 11.6748 5.08911 11.6547C5.17097 11.6345 5.22742 11.5798 5.21895 11.5222C5.21048 11.4675 5.13427 11.4301 5.05242 11.4387ZM6.90968 0.405396C2.99476 0.405396 0 3.43726 0 7.43079C0 10.6239 1.97016 13.3563 4.78427 14.318C5.14556 14.3842 5.27258 14.1567 5.27258 13.9696C5.27258 13.7911 5.26411 12.8064 5.26411 12.2017C5.26411 12.2017 3.28831 12.6336 2.87339 11.3437C2.87339 11.3437 2.55161 10.5058 2.08871 10.2899C2.08871 10.2899 1.44234 9.83786 2.13387 9.84649C2.13387 9.84649 2.83669 9.90408 3.22339 10.5893C3.84153 11.7007 4.87742 11.3811 5.28105 11.1911C5.34597 10.7304 5.52944 10.4108 5.73266 10.2208C4.15484 10.0423 2.5629 9.80906 2.5629 7.03921C2.5629 6.24742 2.77742 5.85008 3.22903 5.34333C3.15565 5.15618 2.91573 4.38453 3.30242 3.38831C3.89234 3.20116 5.25 4.16571 5.25 4.16571C5.81452 4.00447 6.42137 3.92097 7.02258 3.92097C7.62379 3.92097 8.23065 4.00447 8.79516 4.16571C8.79516 4.16571 10.1528 3.19828 10.7427 3.38831C11.1294 4.38741 10.8895 5.15618 10.8161 5.34333C11.2677 5.85296 11.5444 6.2503 11.5444 7.03921C11.5444 9.8177 9.88186 10.0394 8.30403 10.2208C8.56371 10.4483 8.78387 10.8801 8.78387 11.5568C8.78387 12.5271 8.7754 13.7277 8.7754 13.9638C8.7754 14.151 8.90524 14.3785 9.26371 14.3122C12.0863 13.3563 14 10.6239 14 7.43079C14 3.43726 10.8246 0.405396 6.90968 0.405396ZM2.74355 10.336C2.70685 10.3648 2.71532 10.431 2.76331 10.4857C2.80847 10.5318 2.87339 10.5519 2.91008 10.5145C2.94677 10.4857 2.93831 10.4195 2.89032 10.3648C2.84516 10.3187 2.78024 10.2985 2.74355 10.336ZM2.43871 10.1027C2.41895 10.1402 2.44718 10.1862 2.50363 10.215C2.54879 10.2438 2.60524 10.2352 2.625 10.1949C2.64476 10.1575 2.61653 10.1114 2.56008 10.0826C2.50363 10.0653 2.45847 10.074 2.43871 10.1027ZM3.35323 11.1278C3.30806 11.1652 3.325 11.2516 3.38992 11.3063C3.45484 11.3725 3.53669 11.3811 3.57339 11.3351C3.61008 11.2976 3.59315 11.2113 3.53669 11.1566C3.4746 11.0903 3.38992 11.0817 3.35323 11.1278ZM3.03145 10.7045C2.98629 10.7333 2.98629 10.8082 3.03145 10.8744C3.07661 10.9406 3.15282 10.9694 3.18952 10.9406C3.23468 10.9032 3.23468 10.8283 3.18952 10.7621C3.15 10.6959 3.07661 10.6671 3.03145 10.7045Z" fill="white"/>
</svg>
