<svg width="37" height="20" viewBox="0 0 37 26" fill="none" xmlns="http://www.w3.org/2000/svg">
<path d="M18.0095 6.74508L6.16715 15.5588V25.0713C6.16715 25.3176 6.27543 25.5538 6.46816 25.728C6.66089 25.9022 6.92229 26 7.19485 26L14.3926 25.9832C14.6643 25.9819 14.9243 25.8836 15.116 25.7095C15.3076 25.5355 15.4152 25.3 15.4152 25.0545V19.4993C15.4152 19.253 15.5234 19.0168 15.7162 18.8426C15.9089 18.6684 16.1703 18.5706 16.4429 18.5706H20.5537C20.8262 18.5706 21.0876 18.6684 21.2803 18.8426C21.4731 19.0168 21.5814 19.253 21.5814 19.4993V25.0504C21.5809 25.1726 21.6072 25.2937 21.6587 25.4067C21.7101 25.5197 21.7857 25.6224 21.8812 25.709C21.9767 25.7955 22.0901 25.8642 22.215 25.911C22.3399 25.9579 22.4738 25.982 22.609 25.982L29.8042 26C30.0768 26 30.3382 25.9022 30.5309 25.728C30.7236 25.5538 30.8319 25.3176 30.8319 25.0713V15.5524L18.9922 6.74508C18.853 6.6437 18.6796 6.58841 18.5008 6.58841C18.322 6.58841 18.1486 6.6437 18.0095 6.74508ZM36.7155 12.7356L31.3458 8.73593V0.696506C31.3458 0.511781 31.2646 0.334622 31.12 0.204002C30.9755 0.0733818 30.7794 0 30.575 0H26.9781C26.7736 0 26.5776 0.0733818 26.433 0.204002C26.2885 0.334622 26.2073 0.511781 26.2073 0.696506V4.91095L20.4567 0.635562C19.9048 0.225192 19.2123 0.000820337 18.4976 0.000820337C17.7829 0.000820337 17.0904 0.225192 16.5386 0.635562L0.279726 12.7356C0.201677 12.7939 0.137104 12.8655 0.0896962 12.9464C0.0422884 13.0272 0.0129752 13.1157 0.00343133 13.2068C-0.00611253 13.2979 0.00430006 13.3898 0.0340741 13.4773C0.0638482 13.5647 0.1124 13.646 0.176956 13.7165L1.81485 15.5158C1.87923 15.5866 1.95842 15.6452 2.04788 15.6882C2.13734 15.7312 2.23532 15.7579 2.33621 15.7667C2.4371 15.7755 2.53891 15.7662 2.63583 15.7394C2.73274 15.7126 2.82285 15.6688 2.901 15.6104L18.0095 4.36535C18.1486 4.26397 18.322 4.20868 18.5008 4.20868C18.6796 4.20868 18.853 4.26397 18.9922 4.36535L34.1013 15.6104C34.1793 15.6688 34.2693 15.7127 34.3661 15.7396C34.4628 15.7665 34.5645 15.7759 34.6653 15.7673C34.7661 15.7586 34.8641 15.7321 34.9536 15.6893C35.043 15.6465 35.1223 15.5881 35.1868 15.5176L36.8247 13.7183C36.8892 13.6474 36.9375 13.5657 36.9669 13.4778C36.9964 13.39 37.0063 13.2977 36.9961 13.2064C36.986 13.1151 36.956 13.0265 36.9078 12.9457C36.8597 12.8649 36.7943 12.7935 36.7155 12.7356Z" fill="white"/>
</svg>
