<svg width="65" height="56" viewBox="0 0 65 56" fill="none" xmlns="http://www.w3.org/2000/svg">
<path d="M13.7617 0H16.6816V2.49375H19.373V0H22.293V7.54688H19.373V5.03125H16.707V7.54688H13.7617V0ZM26.1523 2.51562H23.5752V0H31.6621V2.51562H29.0723V7.54688H26.1523V2.51562ZM32.9443 0H36.0039L37.8828 2.65781L39.7617 0H42.8213V7.54688H39.9014V3.80625L37.8574 6.51875L35.8135 3.80625V7.54688H32.9443V0ZM44.2686 0H47.1885V5.05312H51.3271V7.54688H44.2686" fill="white"/>
<path d="M13.6602 51.5156L9.4707 11.0031H55.5293L51.3398 51.4937L32.4619 56" fill="#E44D26"/>
<path d="M32.5 52.5547V14.3281H51.3271L47.7344 48.8906" fill="#F16529"/>
<path d="M18.0273 19.2828H32.5V24.2484H24.3496L24.8828 29.3344H32.5V34.2891H19.6016L18.0273 19.2828ZM19.8555 36.7828H25.6445L26.0508 40.7531L32.5 42.2406V47.425L20.668 44.5812" fill="#EBEBEB"/>
<path d="M46.9219 19.2828H32.4746V24.2484H46.3887L46.9219 19.2828ZM45.8682 29.3344H32.4746V34.3H39.584L38.9111 40.7531L32.4746 42.2406V47.4031L44.2813 44.5812" fill="white"/>
</svg>
