<svg width="56" height="56" viewBox="0 0 56 56" fill="none" xmlns="http://www.w3.org/2000/svg">
<path d="M56 0H0V56H56V0Z" fill="#F7DF1E"/>
<path d="M37.6178 43.7502C38.7458 45.592 40.2133 46.9458 42.8089 46.9458C44.9893 46.9458 46.3822 45.856 46.3822 44.3502C46.3822 42.5458 44.9511 41.9067 42.5511 40.8569L41.2356 40.2924C37.4382 38.6747 34.9156 36.648 34.9156 32.3636C34.9156 28.4169 37.9227 25.4124 42.6222 25.4124C45.968 25.4124 48.3733 26.5769 50.1067 29.6258L46.0089 32.2569C45.1067 30.6391 44.1333 30.0018 42.6222 30.0018C41.0809 30.0018 40.104 30.9796 40.104 32.2569C40.104 33.8356 41.0818 34.4747 43.3396 35.4524L44.6551 36.016C49.1262 37.9333 51.6507 39.888 51.6507 44.2827C51.6507 49.0204 47.9289 51.616 42.9307 51.616C38.0436 51.616 34.8862 49.2871 33.3413 46.2347L37.6178 43.7502ZM19.0285 44.2062C19.8551 45.6729 20.6071 46.9129 22.4151 46.9129C24.144 46.9129 25.2347 46.2364 25.2347 43.6062V25.7129H30.4969V43.6773C30.4969 49.1262 27.3022 51.6062 22.6391 51.6062C18.4258 51.6062 15.9858 49.4258 14.7449 46.7996L19.0285 44.2062Z" fill="black"/>
</svg>
