<svg width="14" height="15" viewBox="0 0 14 15" fill="none" xmlns="http://www.w3.org/2000/svg">
<path d="M3.13375 14.3352H0.23125V5.03859H3.13375V14.3352ZM1.68094 3.77046C0.752813 3.77046 0 3.00585 0 2.08272C6.64312e-09 1.6393 0.177098 1.21405 0.492335 0.900512C0.807572 0.586973 1.23513 0.410828 1.68094 0.410828C2.12675 0.410828 2.5543 0.586973 2.86954 0.900512C3.18478 1.21405 3.36188 1.6393 3.36188 2.08272C3.36188 3.00585 2.60875 3.77046 1.68094 3.77046ZM13.9969 14.3352H11.1006V9.80964C11.1006 8.73111 11.0787 7.34797 9.59156 7.34797C8.0825 7.34797 7.85125 8.51975 7.85125 9.73194V14.3352H4.95188V5.03859H7.73562V6.30673H7.77625C8.16375 5.57631 9.11031 4.80548 10.5225 4.80548C13.46 4.80548 14 6.72944 14 9.22842V14.3352H13.9969Z" fill="white"/>
</svg>
