<svg width="120" height="33" viewBox="0 0 120 33" fill="none" xmlns="http://www.w3.org/2000/svg">
<g clip-path="url(#clip0)">
<path fill-rule="evenodd" clip-rule="evenodd" d="M60.6197 7.37507e-05C60.5366 0.00108903 60.4525 0.0209333 60.3783 0.0644584C60.2301 0.151442 60.1368 0.311189 60.1368 0.482971V12.7968C60.1368 12.9178 60.0805 13.0259 59.9758 13.0866C59.8709 13.1475 59.743 13.1475 59.6378 13.0866L57.6257 11.9277C57.326 11.7548 56.9598 11.7549 56.6599 11.9277L48.6278 16.5635C48.3274 16.7367 48.1449 17.07 48.1449 17.4166V26.6882C48.1449 27.0345 48.3277 27.3517 48.6278 27.5252L56.6599 32.161C56.9602 32.3343 57.3254 32.3343 57.6257 32.161L65.6579 27.5252C65.958 27.3517 66.1408 27.0345 66.1408 26.6882V3.57352C66.1408 3.2219 65.949 2.89192 65.6418 2.7204L60.8611 0.0483653C60.7861 0.00648901 60.7029 -0.000823233 60.6197 0.000104735V7.37507e-05ZM8.9497 11.5735C8.79652 11.5797 8.65262 11.6064 8.51509 11.6862L0.482897 16.322C0.183604 16.495 0 16.8102 0 17.159L0.0160621 29.6016C0.0160621 29.7747 0.105348 29.9354 0.257512 30.0202C0.406655 30.1095 0.59177 30.1095 0.740409 30.0202L5.50499 27.2838C5.80681 27.1044 6.00399 26.7926 6.00399 26.4467V20.6359C6.00399 20.2893 6.18632 19.9712 6.48689 19.7989L8.51505 18.6238C8.66643 18.5363 8.82894 18.4951 8.99795 18.4951C9.16349 18.4951 9.33366 18.5363 9.48085 18.6238L11.509 19.7989C11.8096 19.9712 11.9919 20.2893 11.9919 20.6359V26.4467C11.9919 26.7926 12.1911 27.1065 12.4909 27.2838L17.2555 30.0202C17.4051 30.1095 17.59 30.1095 17.7384 30.0202C17.8863 29.9354 17.9798 29.7747 17.9798 29.6016L17.9959 17.159C17.9959 16.8102 17.8143 16.495 17.513 16.322L9.48083 11.6862C9.34498 11.6064 9.20043 11.5798 9.04622 11.5735H8.94964H8.9497ZM81.1267 11.6862C80.9589 11.686 80.7945 11.7284 80.6438 11.815L72.6116 16.4508C72.3116 16.624 72.1288 16.9412 72.1288 17.2878V26.5594C72.1288 26.908 72.3251 27.2241 72.6277 27.3964L80.5956 31.9357C80.8898 32.1037 81.2491 32.1163 81.5452 31.9516L86.3742 29.2635C86.5275 29.1785 86.6311 29.0198 86.6318 28.845C86.6328 28.6702 86.5416 28.5135 86.3903 28.4265L78.3098 23.7906C78.1585 23.7044 78.0523 23.5295 78.0523 23.356V20.4586C78.0523 20.2854 78.1598 20.1267 78.3098 20.0402L80.8209 18.5914C80.9703 18.505 81.1538 18.505 81.3038 18.5914L83.8149 20.0402C83.9649 20.1267 84.0563 20.2854 84.0563 20.4586V22.7444C84.0563 22.9179 84.1477 23.0764 84.2978 23.1629C84.4484 23.2496 84.6306 23.25 84.7807 23.1629L89.5935 20.3621C89.8923 20.1886 90.0764 19.8706 90.0764 19.5251V17.2876C90.0764 16.9421 89.8929 16.6241 89.5935 16.4506L81.6096 11.8148C81.4593 11.7277 81.2945 11.6862 81.1267 11.686V11.6862ZM57.1106 18.6077C57.1525 18.6077 57.2018 18.618 57.2394 18.6397L59.9919 20.2332C60.0666 20.2765 60.1207 20.3562 60.1207 20.4425V23.6296C60.1207 23.7161 60.0671 23.7959 59.9919 23.8389L57.2394 25.4324C57.1645 25.4752 57.0729 25.4752 56.998 25.4324L54.2455 23.8389C54.1705 23.7956 54.1167 23.7161 54.1167 23.6296V20.4425C54.1167 20.3562 54.1708 20.2767 54.2455 20.2332L56.998 18.6399C57.0356 18.6183 57.0688 18.608 57.1106 18.608V18.6077Z" fill="white"/>
<path fill-rule="evenodd" clip-rule="evenodd" d="M105.191 11.4608C104.913 11.4608 104.642 11.5184 104.402 11.654L96.8209 16.0323C96.3303 16.3147 96.0321 16.8487 96.0321 17.4166V26.157C96.0321 26.7246 96.3303 27.2579 96.8209 27.5413L98.8008 28.6842C99.7627 29.1583 100.117 29.1509 100.555 29.1509C101.98 29.1509 102.793 28.2868 102.793 26.7848V18.157C102.793 18.035 102.687 17.9477 102.567 17.9477H101.618C101.496 17.9477 101.392 18.035 101.392 18.157V26.7848C101.392 27.4505 100.699 28.12 99.5734 27.5574L97.513 26.3502C97.4403 26.3105 97.3843 26.2405 97.3843 26.157V17.4166C97.3843 17.3336 97.4396 17.2493 97.513 17.2073L105.078 12.8451C105.149 12.8044 105.234 12.8044 105.304 12.8451L112.869 17.2073C112.941 17.2506 112.998 17.331 112.998 17.4166V26.157C112.998 26.2405 112.956 26.326 112.885 26.3663L105.304 30.7285C105.239 30.7671 105.149 30.7671 105.078 30.7285L103.131 29.5695C103.073 29.5355 102.994 29.5381 102.938 29.5695C102.4 29.8743 102.299 29.9097 101.795 30.0846C101.67 30.1279 101.482 30.1952 101.859 30.4065L104.402 31.9035C104.644 32.0436 104.914 32.1127 105.191 32.1127C105.472 32.1127 105.738 32.0436 105.98 31.9035L113.561 27.5413C114.052 27.2559 114.35 26.7246 114.35 26.157V17.4166C114.35 16.8487 114.052 16.3159 113.561 16.0323L105.98 11.654C105.742 11.5184 105.47 11.4608 105.191 11.4608ZM33.0784 11.6379C32.9111 11.6379 32.7454 11.6801 32.5955 11.7666L24.5633 16.3864C24.263 16.5594 24.0804 16.8932 24.0804 17.2395V26.5111C24.0804 26.8578 24.2632 27.1747 24.5633 27.3481L32.5955 31.9839C32.8958 32.1574 33.261 32.1574 33.5613 31.9839L41.5935 27.3481C41.8933 27.1747 42.0764 26.8578 42.0764 26.5111V17.2395C42.0764 16.8927 41.8938 16.5594 41.5935 16.3864L33.5613 11.7666C33.4114 11.6801 33.2458 11.6379 33.0784 11.6379ZM116.443 11.6863V11.9116H117.07V13.5695H117.328V11.9116H117.972V11.6863H116.443ZM118.197 11.6863V13.5695H118.439V12.4589C118.439 12.4136 118.441 12.3435 118.439 12.2497C118.436 12.1541 118.439 12.0708 118.439 12.0243V11.9759L118.97 13.5694H119.227L119.775 11.9759C119.775 12.0772 119.761 12.1751 119.759 12.2656C119.758 12.3537 119.759 12.4198 119.759 12.4588V13.5694H120V11.6861H119.646L119.099 13.2797L118.567 11.6861H118.197L118.197 11.6863ZM107.219 17.7064C105.06 17.7064 103.775 18.6252 103.775 20.1531C103.775 21.8106 105.051 22.266 107.123 22.471C109.602 22.7137 109.795 23.0776 109.795 23.5656C109.795 24.4119 109.12 24.7728 107.525 24.7728C105.521 24.7728 105.081 24.2726 104.934 23.2758C104.916 23.1689 104.834 23.0827 104.724 23.0827H103.742C103.621 23.0827 103.517 23.1868 103.517 23.308C103.517 24.5839 104.211 26.0927 107.525 26.0927C109.924 26.0927 111.308 25.1511 111.308 23.5012C111.308 21.8656 110.19 21.4265 107.863 21.1189C105.512 20.8078 105.288 20.6555 105.288 20.1048C105.288 19.6503 105.478 19.0424 107.219 19.0424C108.775 19.0424 109.35 19.3779 109.585 20.4267C109.606 20.5253 109.693 20.6038 109.795 20.6038H110.777C110.837 20.6038 110.896 20.5667 110.938 20.5233C110.979 20.4769 111.008 20.4247 111.002 20.3624C110.85 18.556 109.645 17.7064 107.219 17.7064ZM81.1106 19.9117C81.0785 19.9117 81.043 19.9117 81.014 19.9276L79.4688 20.829C79.4108 20.862 79.3722 20.9233 79.3722 20.99V22.7606C79.3722 22.8273 79.4108 22.8884 79.4688 22.9216L81.014 23.8069C81.072 23.8404 81.1338 23.8404 81.1911 23.8069L82.7364 22.9216C82.7937 22.8886 82.833 22.8273 82.833 22.7606V20.99C82.833 20.9233 82.7937 20.8622 82.7364 20.829L81.1911 19.9276C81.1625 19.9106 81.1427 19.9117 81.1106 19.9117Z" fill="#83CD29"/>
</g>
<defs>
<clipPath id="clip0">
<rect width="120" height="32.291" fill="white"/>
</clipPath>
</defs>
</svg>
