<svg width="120" height="67" viewBox="0 0 102 67" fill="none" xmlns="http://www.w3.org/2000/svg">
<path d="M80.7253 33.3706C80.7253 29.7128 75.7943 26.2463 68.2342 24.0966C69.9789 16.9385 69.2035 11.2436 65.7869 9.4203C64.9994 8.99262 64.0786 8.79003 63.073 8.79003V11.2999C63.6304 11.2999 64.0786 11.4012 64.4542 11.5925C66.1019 12.4704 66.8167 15.813 66.2594 20.1124C66.1261 21.1703 65.9081 22.2846 65.6415 23.4213C63.2669 22.8811 60.6742 22.4647 57.9482 22.1945C56.3126 20.1124 54.6165 18.2216 52.9082 16.5671C56.8578 13.1569 60.5652 11.2886 63.0852 11.2886V8.77878C59.7534 8.77878 55.3919 10.9847 50.9818 14.8114C46.5718 11.0072 42.2102 8.8238 38.8785 8.8238V11.3336C41.3864 11.3336 45.1058 13.1907 49.0555 16.5784C47.3593 18.2328 45.6632 20.1124 44.0518 22.1945C41.3137 22.4647 38.721 22.8811 36.3464 23.4326C36.0677 22.3071 35.8617 21.2154 35.7164 20.1687C35.1469 15.8693 35.8496 12.5266 37.4852 11.6375C37.8487 11.4349 38.3212 11.3449 38.8785 11.3449V8.83505C37.8608 8.83505 36.94 9.03764 36.1404 9.46532C32.736 11.2886 31.9727 16.9723 33.7294 24.1079C26.1936 26.2688 21.2869 29.724 21.2869 33.3706C21.2869 37.0284 26.2179 40.4949 33.7779 42.6446C32.0333 49.8026 32.8087 55.4976 36.2252 57.3209C37.0127 57.7485 37.9335 57.9511 38.9512 57.9511C42.2829 57.9511 46.6445 55.7452 51.0545 51.9185C55.4645 55.7227 59.8261 57.9061 63.1579 57.9061C64.1756 57.9061 65.0963 57.7035 65.896 57.2758C69.3004 55.4526 70.0637 49.7689 68.3069 42.6333C75.8185 40.4836 80.7253 37.0171 80.7253 33.3706ZM64.9509 25.8636C64.5027 27.3155 63.9454 28.8124 63.3154 30.3093C62.8186 29.4089 62.2977 28.5085 61.7282 27.6081C61.1709 26.7077 60.5773 25.8298 59.9836 24.9745C61.704 25.2108 63.3638 25.5035 64.9509 25.8636ZM59.4021 37.85C58.4571 39.3694 57.4878 40.81 56.4822 42.1493C54.677 42.2957 52.8476 42.3744 51.0061 42.3744C49.1766 42.3744 47.3472 42.2957 45.5541 42.1606C44.5485 40.8213 43.5672 39.3919 42.6222 37.8838C41.7014 36.4094 40.8654 34.9125 40.1022 33.4043C40.8533 31.8962 41.7014 30.3881 42.6101 28.9137C43.5551 27.3943 44.5243 25.9536 45.5299 24.6143C47.3351 24.468 49.1645 24.3892 51.0061 24.3892C52.8355 24.3892 54.6649 24.468 56.458 24.6031C57.4636 25.9424 58.445 27.3718 59.39 28.8799C60.3107 30.3543 61.1467 31.8512 61.91 33.3593C61.1467 34.8675 60.3107 36.3756 59.4021 37.85ZM63.3154 36.3869C63.9696 37.895 64.5269 39.4032 64.9873 40.8663C63.4002 41.2265 61.7282 41.5303 59.9957 41.7667C60.5894 40.9001 61.183 40.0109 61.7404 39.0993C62.2977 38.1989 62.8186 37.2873 63.3154 36.3869ZM51.0303 48.3958C49.9036 47.3153 48.7768 46.111 47.6622 44.7942C48.7526 44.8393 49.8672 44.873 50.9939 44.873C52.1328 44.873 53.2595 44.8505 54.362 44.7942C53.2717 46.111 52.1449 47.3153 51.0303 48.3958ZM42.0164 41.7667C40.296 41.5303 38.6362 41.2377 37.0491 40.8776C37.4973 39.4257 38.0546 37.9288 38.6847 36.4319C39.1814 37.3323 39.7023 38.2327 40.2718 39.1331C40.8412 40.0334 41.4227 40.9113 42.0164 41.7667ZM50.9697 18.3454C52.0965 19.4258 53.2232 20.6301 54.3378 21.9469C53.2474 21.9019 52.1328 21.8681 51.0061 21.8681C49.8672 21.8681 48.7405 21.8907 47.638 21.9469C48.7284 20.6301 49.8551 19.4258 50.9697 18.3454ZM42.0043 24.9745C41.4106 25.8411 40.817 26.7302 40.2597 27.6419C39.7023 28.5423 39.1814 29.4426 38.6847 30.343C38.0304 28.8349 37.4731 27.3267 37.0127 25.8636C38.5998 25.5147 40.2718 25.2108 42.0043 24.9745ZM31.0398 39.0655C26.7509 37.366 23.9765 35.1376 23.9765 33.3706C23.9765 31.6036 26.7509 29.3639 31.0398 27.6756C32.0817 27.2592 33.2206 26.8878 34.3958 26.5389C35.0864 28.7448 35.995 31.0408 37.1218 33.3931C36.0071 35.7341 35.1106 38.0188 34.4321 40.2135C33.2327 39.8646 32.0938 39.482 31.0398 39.0655ZM37.5579 55.1487C35.9102 54.2708 35.1954 50.9281 35.7527 46.6288C35.886 45.5708 36.1041 44.4566 36.3706 43.3199C38.7452 43.8601 41.3379 44.2765 44.0639 44.5466C45.6995 46.6288 47.3957 48.5196 49.1039 50.174C45.1543 53.5843 41.447 55.4526 38.927 55.4526C38.3818 55.4413 37.9214 55.34 37.5579 55.1487ZM66.2958 46.5725C66.8652 50.8718 66.1625 54.2145 64.5269 55.1037C64.1634 55.3062 63.6909 55.3963 63.1336 55.3963C60.6257 55.3963 56.9063 53.5392 52.9567 50.1515C54.6528 48.4971 56.349 46.6175 57.9603 44.5354C60.6984 44.2653 63.2911 43.8488 65.6658 43.2973C65.9444 44.4341 66.1625 45.5258 66.2958 46.5725ZM70.9602 39.0655C69.9183 39.482 68.7794 39.8534 67.6042 40.2023C66.9136 37.9963 66.005 35.7003 64.8783 33.3481C65.9929 31.0071 66.8894 28.7223 67.5679 26.5276C68.7673 26.8765 69.9062 27.2592 70.9723 27.6756C75.2612 29.3751 78.0356 31.6036 78.0356 33.3706C78.0235 35.1376 75.2491 37.3773 70.9602 39.0655Z" fill="#61DAFB"/>
<path d="M50.9939 38.514C54.0518 38.514 56.5307 36.2112 56.5307 33.3706C56.5307 30.5299 54.0518 28.2271 50.9939 28.2271C47.9361 28.2271 45.4572 30.5299 45.4572 33.3706C45.4572 36.2112 47.9361 38.514 50.9939 38.514Z" fill="#61DAFB"/>
</svg>
