<svg width="104" height="67" xmlns="http://www.w3.org/2000/svg" fill="none">
 <g>
  <title>Layer 1</title>
  <path stroke="null" d="m103.80222,33.5924c0,-4.96571 -8.61405,-9.67172 -21.82093,-12.59008c3.04785,-9.7176 1.69329,-17.44881 -4.27523,-19.92407c-1.3757,-0.5806 -2.98426,-0.85563 -4.74096,-0.85563l0,3.40732c0.97373,0 1.7567,0.13752 2.41284,0.39722c2.8784,1.19181 4.12709,5.72961 3.15354,11.56634c-0.23286,1.43617 -0.61369,2.94891 -1.07942,4.49205c-4.14823,-0.73336 -8.67747,-1.29865 -13.43956,-1.66546c-2.85726,-2.82659 -5.82021,-5.39348 -8.80447,-7.63957c6.89963,-4.62958 13.37615,-7.16592 17.77838,-7.16592l0,-3.40725c-5.82038,0 -13.43956,2.99469 -21.14365,8.18969c-7.70391,-5.16446 -15.32326,-8.12857 -21.14347,-8.12857l0,3.40722c4.3811,0 10.87858,2.52114 17.77838,7.12017c-2.96312,2.24596 -5.92607,4.79764 -8.74105,7.62423c-4.78324,0.36681 -9.31247,0.93211 -13.4607,1.6808c-0.48687,-1.52794 -0.84673,-3.01 -1.10056,-4.43096c-0.99487,-5.83673 0.23269,-10.37467 3.08995,-11.58168c0.635,-0.27504 1.46042,-0.39722 2.43398,-0.39722l0,-3.40729c-1.77784,0 -3.3864,0.27503 -4.78324,0.85563c-5.94721,2.47523 -7.28063,10.19123 -4.21182,19.87829c-13.16442,2.93357 -21.73603,7.62423 -21.73603,12.57474c0,4.96571 8.61405,9.67172 21.82075,12.59008c-3.04767,9.71747 -1.69311,17.44881 4.27523,19.92407c1.3757,0.5805 2.98426,0.85554 4.7621,0.85554c5.82021,0 13.43956,-2.99466 21.14347,-8.18966c7.70391,5.16446 15.32326,8.12857 21.14365,8.12857c1.77784,0 3.38623,-0.27504 4.78324,-0.85567c5.94721,-2.47512 7.28063,-10.19112 4.21164,-19.87818c6.56107,-1.45918 11.98456,-3.36527 15.76777,-5.52537c1.8916,-1.08005 3.37314,-2.22359 4.38178,-3.40653c0.50432,-0.59146 0.89042,-1.19277 1.15043,-1.80092c0.13001,-0.30408 0.2285,-0.60986 0.29448,-0.91697c0.033,-0.15355 0.05786,-0.30745 0.07447,-0.46161c0.00832,-0.0771 0.01457,-0.15425 0.01873,-0.23147c0.00208,-0.03861 0.00365,-0.07725 0.0047,-0.1159c0.00052,-0.01932 0.00091,-0.03864 0.00119,-0.05797c0.00012,-0.00967 0.00021,-0.01933 0.00028,-0.02901c0.00003,-0.00483 0.00005,-0.00967 0.00007,-0.0145c0.00002,-0.00242 0.00003,-0.00483 0.00003,-0.00725c0,-0.00121 0,-0.00242 0,-0.00362c0,-0.00121 0,-0.00242 0,-0.00362zm-27.55658,-10.19126c-0.78297,1.97105 -1.75653,4.00319 -2.85708,6.03534c-0.86787,-1.22235 -1.77784,-2.44471 -2.77271,-3.66706c-0.97356,-1.22235 -2.01053,-2.41416 -3.04767,-3.57529c3.0054,0.32079 5.90493,0.71815 8.67747,1.20701zm-9.6933,16.27235c-1.65084,2.06269 -3.34412,4.0184 -5.10083,5.83659c-3.15354,0.19875 -6.34935,0.30559 -9.5663,0.30559c-3.19599,0 -6.3918,-0.10684 -9.5242,-0.29025c-1.7567,-1.81819 -3.47095,-3.7587 -5.12179,-5.80604c-1.60856,-2.0016 -3.06899,-4.03374 -4.40223,-6.08122c1.31211,-2.04735 2.79367,-4.09469 4.3811,-6.09629c1.65084,-2.06269 3.34395,-4.01854 5.10065,-5.83673c3.15354,-0.19861 6.34935,-0.30559 9.56647,-0.30559c3.19581,0 6.39162,0.10698 9.52402,0.29038c1.7567,1.81819 3.47113,3.7587 5.12196,5.80604c1.60839,2.0016 3.06881,4.03374 4.40223,6.08109c-1.33342,2.04748 -2.79385,4.09483 -4.3811,6.09643zm6.83621,-1.98626c1.14283,2.04735 2.11639,4.09483 2.92067,6.08109c-2.77253,0.489 -5.69338,0.90142 -8.71992,1.22235c1.03715,-1.17647 2.07412,-2.38362 3.04785,-3.62118c0.97356,-1.22235 1.88353,-2.45991 2.7514,-3.68227zm-21.46106,16.30289c-1.96825,-1.46685 -3.93668,-3.10177 -5.88379,-4.88941c1.90484,0.06123 3.85195,0.10698 5.82021,0.10698c1.98956,0 3.95782,-0.03055 5.88379,-0.10698c-1.90466,1.78764 -3.87309,3.42256 -5.82021,4.88941zm-15.74654,-8.99945c-3.0054,-0.32093 -5.90493,-0.71815 -8.67747,-1.20701c0.78297,-1.97105 1.75653,-4.00319 2.85726,-6.03534c0.86769,1.22235 1.77766,2.44471 2.77253,3.66706c0.9947,1.22222 2.01053,2.41403 3.04767,3.57529zm15.64068,-31.79599c1.96843,1.46672 3.93668,3.10163 5.88379,4.88928c-1.90484,-0.06109 -3.85195,-0.10698 -5.82021,-0.10698c-1.98956,0 -3.95782,0.03068 -5.88379,0.10698c1.90484,-1.78764 3.87309,-3.42256 5.82021,-4.88928zm-15.66182,8.99945c-1.03715,1.17647 -2.07412,2.38348 -3.04767,3.62118c-0.97373,1.22235 -1.8837,2.44457 -2.7514,3.66693c-1.14301,-2.04735 -2.11657,-4.09483 -2.92085,-6.08109c2.77253,-0.47366 5.69338,-0.88622 8.71992,-1.20701zm-19.15408,19.12948c-7.49236,-2.30719 -12.33901,-5.33239 -12.33901,-7.73121c0,-2.39882 4.84665,-5.43937 12.33901,-7.73135c1.82011,-0.56529 3.80968,-1.06949 5.86266,-1.54315c1.20642,2.99466 2.79367,6.11163 4.7621,9.30504c-1.94729,3.17807 -3.5134,6.2797 -4.69869,9.25915c-2.09525,-0.47366 -4.08482,-0.99306 -5.92607,-1.55849zm11.38659,21.83403c-2.8784,-1.19181 -4.12709,-5.72975 -3.15354,-11.56634c0.23286,-1.43631 0.61387,-2.94891 1.07942,-4.49205c4.14823,0.73336 8.67747,1.29865 13.43956,1.66533c2.85726,2.82673 5.82038,5.39362 8.80447,7.63957c-6.89963,4.62971 -13.37598,7.16606 -17.77821,7.16606c-0.95242,-0.01534 -1.7567,-0.15286 -2.39171,-0.41256zm50.20275,-11.64277c0.9947,5.83659 -0.23286,10.37453 -3.09012,11.58168c-0.635,0.27491 -1.46042,0.39722 -2.43398,0.39722c-4.3811,0 -10.87858,-2.52114 -17.77821,-7.12017c2.96295,-2.24596 5.92607,-4.79764 8.74088,-7.62423c4.78324,-0.36668 9.31247,-0.93211 13.46088,-1.6808c0.48669,1.54328 0.86769,3.02534 1.10056,4.4463zm8.14832,-10.19126c-1.82011,0.56543 -3.80968,1.06963 -5.86266,1.54328c-1.20642,-2.99479 -2.79367,-6.11177 -4.76192,-9.30504c1.94711,-3.17807 3.51323,-6.27984 4.69851,-9.25929c2.09525,0.47366 4.08482,0.9932 5.94721,1.55849c7.49236,2.30719 12.33901,5.33252 12.33901,7.73135c-0.01057,1.19941 -1.22751,2.55925 -3.37836,3.90572c-2.15086,1.34646 -5.2356,2.67957 -8.98178,3.82549z" fill="#61DAFB" id="svg_1"/>
  <path stroke="null" d="m51.873,41.37114c4.51449,0 8.17419,-3.63119 8.17419,-8.1104c0,-4.47938 -3.65969,-8.11056 -8.17419,-8.11056c-4.51434,0 -8.17404,3.63119 -8.17404,8.11056c0,4.47922 3.65969,8.1104 8.17404,8.1104z" fill="#61DAFB" id="svg_2"/>
  <rect id="svg_5" height="64.82744" width="55" y="0.0518" x="-103.17206" fill="#61DAFB"/>
 </g>

</svg>