<svg width="23" height="20" viewBox="0 0 23 29" fill="none" xmlns="http://www.w3.org/2000/svg">
<path d="M11.5 14.5C15.1297 14.5 18.0714 11.2545 18.0714 7.25C18.0714 3.24551 15.1297 0 11.5 0C7.87031 0 4.92857 3.24551 4.92857 7.25C4.92857 11.2545 7.87031 14.5 11.5 14.5ZM16.1 16.3125H15.2426C14.1029 16.8902 12.8348 17.2188 11.5 17.2188C10.1652 17.2188 8.90223 16.8902 7.75737 16.3125H6.9C3.09063 16.3125 0 19.7223 0 23.925V26.2812C0 27.7822 1.10379 29 2.46429 29H20.5357C21.8962 29 23 27.7822 23 26.2812V23.925C23 19.7223 19.9094 16.3125 16.1 16.3125Z" fill="white"/>
</svg>
